# xmcd
#
# Track frame offsets: 
#        150
#        10591
#        25536
#        35049
#        52123
#        63553
#        77328
#        91141
#        102829
#        116273
#        133450
#        149607
#
# Disc length: 2217 seconds
#
# Revision: 0
# Processed by: cddbd v1.5.2PL0 Copyright (c) Steve Scherf et al.
# Submitted via: ExactAudioCopyFreeDBPlugin 1.0
#
DISCID=9a08a70c
DTITLE=Mercedes Sosa - '76
DYEAR=2010
DGENRE=World
TTITLE0=La Mamancy
TTITLE1=Poema 15
TTITLE2=La Trunca Norte
TTITLE3=Las Estatuas
TTITLE4=Drume, Negrita
TTITLE5=Cantor de Oficio
TTITLE6=Pueblos de Gesto Antiguo
TTITLE7=La Cuna de tu Hijo
TTITLE8=Peoncito de Estancia
TTITLE9=Muchacho Pelador
TTITLE10=Cuando Voy al Trabajo
TTITLE11=Indio
EXTD=
EXTT0=
EXTT1=
EXTT2=
EXTT3=
EXTT4=
EXTT5=
EXTT6=
EXTT7=
EXTT8=
EXTT9=
EXTT10=
EXTT11=
PLAYORDER=
